<?xml version="1.0" encoding="utf-8"?>
<!-- Generator: Adobe Illustrator 16.0.4, SVG Export Plug-In . SVG Version: 6.00 Build 0)  -->
<!DOCTYPE svg PUBLIC "-//W3C//DTD SVG 1.1//EN" "http://www.w3.org/Graphics/SVG/1.1/DTD/svg11.dtd">
<svg version="1.1" id="Laag_1" xmlns="http://www.w3.org/2000/svg" xmlns:xlink="http://www.w3.org/1999/xlink" x="0px" y="0px"
	 width="28px" height="28px" viewBox="0 0 28 28" enable-background="new 0 0 28 28" xml:space="preserve">
<g>
	<path fill="#219DC8" d="M14.031,1c7.186,0,13.031,5.846,13.031,13.031s-5.846,13.031-13.031,13.031S1,21.217,1,14.031
		S6.846,1,14.031,1 M14.031,0C6.282,0,0,6.282,0,14.031c0,7.749,6.282,14.031,14.031,14.031c7.749,0,14.031-6.282,14.031-14.031
		C28.062,6.282,21.78,0,14.031,0L14.031,0z"/>
</g>
<path fill="#219DC8" d="M14.023,13.352c1.846,0,3.34-1.514,3.34-3.38c0-1.864-1.494-3.378-3.34-3.378
	c-1.844,0-3.336,1.516-3.336,3.38C10.688,11.839,12.18,13.352,14.023,13.352"/>
<path fill="#219DC8" d="M17.32,14.123c-0.916,0.695-2.059,1.111-3.295,1.111c-1.234,0-2.374-0.416-3.293-1.108
	c-2.774,1.88-2.695,6.226-2.695,6.253c0,0,0,0,0,0.002c0,0.381,2.685,0.691,5.994,0.691c3.308,0,5.992-0.312,5.992-0.691
	c0,0,0,0,0-0.002C20.023,20.352,20.104,16,17.32,14.123"/>
</svg>
