<?xml version="1.0" encoding="utf-8"?>
<!-- Generator: Adobe Illustrator 16.0.4, SVG Export Plug-In . SVG Version: 6.00 Build 0)  -->
<!DOCTYPE svg PUBLIC "-//W3C//DTD SVG 1.1//EN" "http://www.w3.org/Graphics/SVG/1.1/DTD/svg11.dtd">
<svg version="1.1" id="Laag_1" xmlns="http://www.w3.org/2000/svg" xmlns:xlink="http://www.w3.org/1999/xlink" x="0px" y="0px"
	 width="50px" height="50px" viewBox="0 0 50 50" enable-background="new 0 0 50 50" xml:space="preserve">
<g>
	<path fill="#CCCCCC" d="M40.509,33.05c1.194,1.848,0.371,3.359-1.829,3.359H11.32c-2.2,0-3.023-1.512-1.829-3.359l13.338-20.638
		c1.194-1.848,3.147-1.848,4.342,0L40.509,33.05z"/>
</g>
<g>
	<path d="M23.9,29.703c0-0.353,0.094-0.617,0.283-0.799c0.188-0.18,0.463-0.27,0.823-0.27c0.348,0,0.616,0.092,0.808,0.276
		c0.19,0.185,0.286,0.447,0.286,0.792c0,0.331-0.096,0.592-0.289,0.782c-0.192,0.19-0.461,0.286-0.805,0.286
		c-0.352,0-0.624-0.094-0.817-0.279C23.996,30.305,23.9,30.043,23.9,29.703z M25.779,27.553h-1.534l-0.32-6.14H26.1L25.779,27.553z"
		/>
</g>
</svg>
