<?xml version="1.0" encoding="utf-8"?>
<!-- Generator: Adobe Illustrator 16.0.4, SVG Export Plug-In . SVG Version: 6.00 Build 0)  -->
<!DOCTYPE svg PUBLIC "-//W3C//DTD SVG 1.1//EN" "http://www.w3.org/Graphics/SVG/1.1/DTD/svg11.dtd">
<svg version="1.1" id="Laag_1" xmlns="http://www.w3.org/2000/svg" xmlns:xlink="http://www.w3.org/1999/xlink" x="0px" y="0px"
	 width="30px" height="30px" viewBox="0 0 30 30" enable-background="new 0 0 30 30" xml:space="preserve">
<g>
	<path d="M15.023,30.047C6.74,30.047,0,23.307,0,15.023C0,6.739,6.74,0,15.023,0c8.284,0,15.023,6.739,15.023,15.023
		C30.047,23.307,23.308,30.047,15.023,30.047z M15.023,2.417c-6.951,0-12.606,5.655-12.606,12.606
		c0,6.952,5.655,12.606,12.606,12.606S27.63,21.976,27.63,15.023C27.63,8.072,21.975,2.417,15.023,2.417z"/>
</g>
<g>
	<polygon points="24.003,25.175 15.023,12.065 6.045,25.175 4.05,23.809 15.023,7.788 25.997,23.809 	"/>
</g>
</svg>
