<?xml version="1.0" encoding="utf-8"?>
<!-- Generator: Adobe Illustrator 16.0.4, SVG Export Plug-In . SVG Version: 6.00 Build 0)  -->
<!DOCTYPE svg PUBLIC "-//W3C//DTD SVG 1.1//EN" "http://www.w3.org/Graphics/SVG/1.1/DTD/svg11.dtd">
<svg version="1.1" id="Laag_1" xmlns="http://www.w3.org/2000/svg" xmlns:xlink="http://www.w3.org/1999/xlink" x="0px" y="0px"
	 width="50px" height="50px" viewBox="0 0 50 50" enable-background="new 0 0 50 50" xml:space="preserve">
<path fill="#020202" d="M19.354,11.615h23.419l0.008,16.849l-4.989,0.001l-3.936,3.938l-3.936-3.932l-10.561,0.002L19.354,11.615z
	 M17.124,9.386l0.006,21.32l11.866-0.007l4.863,4.856l4.858-4.861l6.292-0.001L45.002,9.386H17.124z"/>
<polygon fill="#020202" points="4.998,16.366 4.99,39.347 11.775,39.347 16.978,44.557 22.186,39.353 34.541,39.359 34.546,32.354 
	33.154,33.746 32.873,33.465 32.871,37.686 21.493,37.681 16.978,42.191 12.467,37.677 6.662,37.675 6.669,18.038 18.663,18.038 
	18.663,16.366 "/>
</svg>
