<?xml version="1.0" encoding="utf-8"?>
<!-- Generator: Adobe Illustrator 16.0.4, SVG Export Plug-In . SVG Version: 6.00 Build 0)  -->
<!DOCTYPE svg PUBLIC "-//W3C//DTD SVG 1.1//EN" "http://www.w3.org/Graphics/SVG/1.1/DTD/svg11.dtd">
<svg version="1.1" id="Laag_1" xmlns="http://www.w3.org/2000/svg" xmlns:xlink="http://www.w3.org/1999/xlink" x="0px" y="0px"
	 width="44px" height="44px" viewBox="0 0 44 44" enable-background="new 0 0 44 44" xml:space="preserve">
<g>
	<defs>
		<rect id="SVGID_1_" y="0" width="44" height="44"/>
	</defs>
	<clipPath id="SVGID_2_">
		<use xlink:href="#SVGID_1_"  overflow="visible"/>
	</clipPath>
	<path clip-path="url(#SVGID_2_)" fill="#219DC8" d="M22,0C9.869,0,0,9.868,0,22c0,12.13,9.87,22,22,22C34.131,44,44,34.13,44,22
		C44,9.868,34.131,0,22,0 M22,41.553c-10.782,0-19.553-8.772-19.553-19.554C2.447,11.218,11.218,2.447,22,2.447
		c10.781,0,19.553,8.771,19.553,19.553C41.553,32.78,32.781,41.552,22,41.553"/>
	<polygon clip-path="url(#SVGID_2_)" fill="#219DC8" points="23.5,11 20.501,11 20.5,20.5 11.994,20.5 11.994,23.5 20.5,23.5 
		20.499,33 23.5,32.999 23.5,23.5 33.994,23.5 33.994,20.5 23.5,20.5 	"/>
</g>
</svg>
