<?xml version="1.0" encoding="utf-8"?>
<!-- Generator: Adobe Illustrator 16.0.4, SVG Export Plug-In . SVG Version: 6.00 Build 0)  -->
<!DOCTYPE svg PUBLIC "-//W3C//DTD SVG 1.1//EN" "http://www.w3.org/Graphics/SVG/1.1/DTD/svg11.dtd">
<svg version="1.1" id="Laag_1" xmlns="http://www.w3.org/2000/svg" xmlns:xlink="http://www.w3.org/1999/xlink" x="0px" y="0px"
	 width="50px" height="50px" viewBox="0 0 50 50" enable-background="new 0 0 50 50" xml:space="preserve">
<path fill="#333333" d="M20.511,15.962h18.934l0.006,13.621l-4.033,0.002l-3.183,3.184l-3.182-3.179l-8.538,0.001L20.511,15.962z
	 M18.708,14.16l0.005,17.237l9.593-0.005l3.932,3.925l3.928-3.93h5.086L41.247,14.16H18.708z"/>
<polygon fill="#333333" points="8.905,19.803 8.899,38.383 14.384,38.383 18.591,42.595 22.801,38.388 32.79,38.393 32.794,32.729 
	31.669,33.854 31.441,33.627 31.439,37.039 22.241,37.036 18.591,40.683 14.943,37.031 10.25,37.03 10.256,21.155 19.953,21.155 
	19.953,19.803 "/>
</svg>
