<?xml version="1.0" encoding="utf-8"?>
<!-- Generator: Adobe Illustrator 16.0.4, SVG Export Plug-In . SVG Version: 6.00 Build 0)  -->
<!DOCTYPE svg PUBLIC "-//W3C//DTD SVG 1.1//EN" "http://www.w3.org/Graphics/SVG/1.1/DTD/svg11.dtd">
<svg version="1.1" id="Laag_1" xmlns="http://www.w3.org/2000/svg" xmlns:xlink="http://www.w3.org/1999/xlink" x="0px" y="0px"
	 width="50px" height="50px" viewBox="0 0 50 50" enable-background="new 0 0 50 50" xml:space="preserve">
<path fill="#333333" d="M19.95,12.662h21.281l0.006,15.309l-4.533,0.002l-3.578,3.58l-3.576-3.574l-9.594,0.002L19.95,12.662z
	 M17.924,10.637l0.005,19.373l10.783-0.005l4.418,4.409l4.416-4.416h5.715l-0.006-19.361H17.924z"/>
<polygon fill="#333333" points="6.906,16.979 6.899,37.861 13.063,37.861 17.792,42.596 22.524,37.867 33.751,37.873 33.755,31.506 
	32.491,32.771 32.235,32.516 32.233,36.352 21.896,36.348 17.792,40.447 13.692,36.342 8.418,36.34 8.425,18.499 19.323,18.499 
	19.323,16.979 "/>
</svg>
