<?xml version="1.0" encoding="utf-8"?>
<!-- Generator: Adobe Illustrator 16.0.4, SVG Export Plug-In . SVG Version: 6.00 Build 0)  -->
<!DOCTYPE svg PUBLIC "-//W3C//DTD SVG 1.1//EN" "http://www.w3.org/Graphics/SVG/1.1/DTD/svg11.dtd">
<svg version="1.1" id="Laag_1" xmlns="http://www.w3.org/2000/svg" xmlns:xlink="http://www.w3.org/1999/xlink" x="0px" y="0px"
	 width="50px" height="50px" viewBox="0 0 50 50" enable-background="new 0 0 50 50" xml:space="preserve">
<g>
	
		<rect x="112.79" y="13.042" fill="none" stroke="#FFFFFF" stroke-width="2.1" stroke-miterlimit="10" width="33.794" height="23.528"/>
	<polyline fill="none" stroke="#FFFFFF" stroke-width="1.5" stroke-miterlimit="10" points="112.79,14.499 129.688,28.594 
		146.584,14.043 	"/>
</g>
<path fill="#FFFFFF" d="M25,8.932c8.858,0,16.067,7.21,16.067,16.069S33.858,41.068,25,41.068c-8.861,0-16.069-7.208-16.069-16.067
	S16.139,8.932,25,8.932 M25,6.731c-10.09,0-18.271,8.18-18.271,18.27S14.91,43.27,25,43.27c10.089,0,18.27-8.179,18.27-18.269
	S35.089,6.731,25,6.731"/>
<path fill="#FFFFFF" d="M26.996,27.596h-3.992l-0.618-11.444h5.227L26.996,27.596z M22.436,31.832c0-0.734,0.216-1.306,0.653-1.713
	c0.436-0.408,1.068-0.61,1.899-0.61c0.823,0,1.445,0.202,1.87,0.61c0.422,0.407,0.634,0.979,0.634,1.713
	c0,0.725-0.22,1.291-0.659,1.699c-0.439,0.407-1.055,0.612-1.844,0.612c-0.798,0-1.425-0.205-1.876-0.612
	C22.661,33.123,22.436,32.557,22.436,31.832"/>
</svg>
