<?xml version="1.0" encoding="utf-8"?>
<!-- Generator: Adobe Illustrator 16.0.4, SVG Export Plug-In . SVG Version: 6.00 Build 0)  -->
<!DOCTYPE svg PUBLIC "-//W3C//DTD SVG 1.1//EN" "http://www.w3.org/Graphics/SVG/1.1/DTD/svg11.dtd">
<svg version="1.1" id="Isolatiemodus" xmlns="http://www.w3.org/2000/svg" xmlns:xlink="http://www.w3.org/1999/xlink" x="0px"
	 y="0px" width="25px" height="25px" viewBox="0 0 25 25" enable-background="new 0 0 25 25" xml:space="preserve">
<g>
	<path fill="#CCCCCC" d="M4.734,23.877l0.08-0.725C5,21.47,5.354,18.78,5.999,15.436c-2.062-1.884-4.046-3.96-5.605-5.866L0,9.089
		l0.602-0.151C2.291,8.516,5.06,8.086,8.419,7.725c1.335-2.968,3.714-7.132,3.739-7.175L12.473,0l0.354,0.526
		c1.045,1.554,2.409,4.169,3.755,7.199c3.358,0.361,6.126,0.791,7.816,1.213L25,9.089l-0.393,0.48
		c-1.558,1.904-3.543,3.981-5.605,5.866c0.644,3.344,0.999,6.034,1.184,7.716l0.08,0.725l-0.65-0.331
		c-0.846-0.432-1.721-0.853-2.638-1.294c-1.41-0.678-2.866-1.379-4.477-2.237c-1.609,0.857-3.064,1.557-4.474,2.235
		c-0.918,0.442-1.795,0.864-2.642,1.295L4.734,23.877z M12.5,19.122l0.186,0.1c1.67,0.896,3.175,1.62,4.632,2.321
		c0.688,0.331,1.354,0.651,2.001,0.973c-0.205-1.713-0.555-4.177-1.133-7.146l-0.042-0.218l0.164-0.148
		c1.918-1.74,3.775-3.654,5.284-5.443c-1.72-0.376-4.281-0.753-7.319-1.075L16.045,8.46l-0.092-0.208
		c-1.211-2.745-2.439-5.154-3.431-6.745c-0.714,1.274-2.457,4.438-3.475,6.745L8.955,8.46L8.728,8.484
		c-3.039,0.321-5.6,0.698-7.32,1.075c1.511,1.79,3.367,3.704,5.284,5.443l0.165,0.148l-0.042,0.218
		c-0.579,2.97-0.929,5.434-1.133,7.146c0.648-0.322,1.314-0.643,2.004-0.975c1.455-0.7,2.96-1.424,4.628-2.319L12.5,19.122z"/>
</g>
</svg>
