<?xml version="1.0" encoding="utf-8"?>
<!-- Generator: Adobe Illustrator 16.0.4, SVG Export Plug-In . SVG Version: 6.00 Build 0)  -->
<!DOCTYPE svg PUBLIC "-//W3C//DTD SVG 1.1//EN" "http://www.w3.org/Graphics/SVG/1.1/DTD/svg11.dtd">
<svg version="1.1" id="Laag_1" xmlns="http://www.w3.org/2000/svg" xmlns:xlink="http://www.w3.org/1999/xlink" x="0px" y="0px"
	 width="50px" height="50px" viewBox="0 0 50 50" enable-background="new 0 0 50 50" xml:space="preserve">
<path fill="#333333" d="M20.888,14.417h20.333l0.007,14.627l-4.332,0.003l-3.418,3.419l-3.417-3.414l-9.167,0.001L20.888,14.417z
	 M18.952,12.482l0.005,18.51l10.302-0.005l4.223,4.214l4.217-4.221h5.462l-0.006-18.498H18.952z"/>
<polygon fill="#333333" points="8.425,18.542 8.419,38.493 14.309,38.493 18.827,43.018 23.347,38.5 34.073,38.504 34.079,32.422 
	32.87,33.63 32.625,33.386 32.623,37.051 22.747,37.048 18.827,40.965 14.909,37.042 9.87,37.04 9.876,19.994 20.29,19.994 
	20.29,18.542 "/>
</svg>
