<?xml version="1.0" encoding="utf-8"?>
<!-- Generator: Adobe Illustrator 16.0.4, SVG Export Plug-In . SVG Version: 6.00 Build 0)  -->
<!DOCTYPE svg PUBLIC "-//W3C//DTD SVG 1.1//EN" "http://www.w3.org/Graphics/SVG/1.1/DTD/svg11.dtd">
<svg version="1.1" id="Laag_1" xmlns="http://www.w3.org/2000/svg" xmlns:xlink="http://www.w3.org/1999/xlink" x="0px" y="0px"
	 width="40px" height="40px" viewBox="0 0 40 40" enable-background="new 0 0 40 40" xml:space="preserve">
<circle fill="#FFFFFF" cx="20" cy="20" r="20"/>
<g>
	<circle fill="#333333" cx="20.101" cy="21.967" r="3.084"/>
	<path fill="#333333" d="M30.647,14.492h-2.532c-0.041-0.051-0.087-0.105-0.146-0.164l-1.692-1.522
		c-0.516-0.519-2.147-1.374-2.879-1.374h-5.743c-0.731,0-2.363,0.855-2.879,1.374l-1.693,1.522
		c-0.058,0.059-0.104,0.112-0.145,0.164H9.369c-0.551,0-0.997,0.511-0.997,1.062v11.839c0,0.551,0.446,1.175,0.997,1.175h21.278
		c0.55,0,0.979-0.624,0.979-1.175V15.554C31.627,15.003,31.197,14.492,30.647,14.492z M16.376,14.303l0.098-0.093
		c0.583-0.587,1.737-1.062,2.563-1.062h2.978c0.827,0,1.98,0.475,2.564,1.062l0.099,0.093c0.582,0.587,0.383,0.921-0.444,0.921
		H16.82C15.993,15.225,15.793,14.89,16.376,14.303z M20.101,26.415c-2.455,0-4.446-1.992-4.446-4.448s1.991-4.447,4.446-4.447
		c2.455,0,4.447,1.991,4.447,4.447S22.556,26.415,20.101,26.415z"/>
</g>
</svg>
