<?xml version="1.0" encoding="utf-8"?>
<!-- Generator: Adobe Illustrator 16.0.4, SVG Export Plug-In . SVG Version: 6.00 Build 0)  -->
<!DOCTYPE svg PUBLIC "-//W3C//DTD SVG 1.1//EN" "http://www.w3.org/Graphics/SVG/1.1/DTD/svg11.dtd">
<svg version="1.1" id="Laag_1" xmlns="http://www.w3.org/2000/svg" xmlns:xlink="http://www.w3.org/1999/xlink" x="0px" y="0px"
	 width="30px" height="30px" viewBox="0 0 30 30" enable-background="new 0 0 30 30" xml:space="preserve">
<path fill="#666666" d="M22.5,21.266l-3.753-3.755c-0.019-0.018-0.039-0.022-0.058-0.038c1.774-2.332,1.604-5.674-0.526-7.804
	c-2.324-2.325-6.094-2.323-8.418,0c-2.324,2.324-2.324,6.095,0,8.417c1.976,1.977,4.992,2.266,7.28,0.883
	c0.016,0.063,0.039,0.125,0.088,0.176l3.756,3.752c0.138,0.143,0.369,0.137,0.518-0.012l1.104-1.101
	C22.634,21.639,22.641,21.405,22.5,21.266z M10.569,17.264c-1.871-1.87-1.871-4.901,0-6.77c1.868-1.869,4.899-1.869,6.77,0
	c1.87,1.869,1.87,4.9,0,6.77C15.469,19.132,12.437,19.132,10.569,17.264z"/>
</svg>
