<?xml version="1.0" encoding="utf-8"?>
<!-- Generator: Adobe Illustrator 16.0.4, SVG Export Plug-In . SVG Version: 6.00 Build 0)  -->
<!DOCTYPE svg PUBLIC "-//W3C//DTD SVG 1.1//EN" "http://www.w3.org/Graphics/SVG/1.1/DTD/svg11.dtd">
<svg version="1.1" id="Laag_1" xmlns="http://www.w3.org/2000/svg" xmlns:xlink="http://www.w3.org/1999/xlink" x="0px" y="0px"
	 width="50px" height="50px" viewBox="0 0 50 50" enable-background="new 0 0 50 50" xml:space="preserve">
<path fill="#666666" d="M17.945,6.348h29.26l0.01,21.05L40.981,27.4l-4.916,4.921l-4.919-4.913l-13.194,0.003L17.945,6.348z
	 M15.159,3.562l0.008,26.638l14.826-0.008l6.075,6.067l6.07-6.073L50,30.184L49.99,3.562H15.159z"/>
<polygon fill="#666666" points="0.01,12.284 0,40.995 8.477,40.996 14.977,47.505 21.484,41.003 36.92,41.012 36.927,32.26 
	35.188,33.998 34.836,33.646 34.834,38.92 20.618,38.914 14.977,44.55 9.341,38.909 2.089,38.906 2.098,14.373 17.083,14.373 
	17.083,12.284 "/>
</svg>
