<?xml version="1.0" encoding="utf-8"?>
<!-- Generator: Adobe Illustrator 16.0.4, SVG Export Plug-In . SVG Version: 6.00 Build 0)  -->
<!DOCTYPE svg PUBLIC "-//W3C//DTD SVG 1.1//EN" "http://www.w3.org/Graphics/SVG/1.1/DTD/svg11.dtd">
<svg version="1.1" id="Laag_1" xmlns="http://www.w3.org/2000/svg" xmlns:xlink="http://www.w3.org/1999/xlink" x="0px" y="0px"
	 width="15px" height="15px" viewBox="0 0 15 15" enable-background="new 0 0 15 15" xml:space="preserve">
<circle fill="#666666" cx="7.501" cy="7.501" r="7.501"/>
<path fill="#FFFFFF" d="M11.266,10.881L9.303,8.917c-0.01-0.01-0.021-0.012-0.03-0.021c0.928-1.219,0.839-2.967-0.275-4.081
	c-1.216-1.216-3.188-1.215-4.402,0c-1.216,1.215-1.216,3.188,0,4.402c1.033,1.033,2.61,1.185,3.808,0.462
	C8.41,9.713,8.423,9.745,8.448,9.771l1.964,1.962c0.072,0.074,0.193,0.071,0.271-0.006l0.577-0.576
	C11.335,11.076,11.339,10.954,11.266,10.881z M5.025,8.787c-0.978-0.978-0.978-2.562,0-3.54s2.563-0.978,3.542,0
	c0.978,0.978,0.978,2.562,0,3.54C7.588,9.765,6.002,9.765,5.025,8.787z"/>
</svg>
