<?xml version="1.0" encoding="utf-8"?>
<!-- Generator: Adobe Illustrator 16.0.4, SVG Export Plug-In . SVG Version: 6.00 Build 0)  -->
<!DOCTYPE svg PUBLIC "-//W3C//DTD SVG 1.1//EN" "http://www.w3.org/Graphics/SVG/1.1/DTD/svg11.dtd">
<svg version="1.1" id="Laag_1" xmlns="http://www.w3.org/2000/svg" xmlns:xlink="http://www.w3.org/1999/xlink" x="0px" y="0px"
	 width="18px" height="18px" viewBox="0 0 18 18" enable-background="new 0 0 18 18" xml:space="preserve">
<g>
	<path fill="#666666" d="M8.989,1.275c4.253,0,7.714,3.461,7.714,7.714c0,4.253-3.461,7.713-7.714,7.713
		c-4.253,0-7.713-3.46-7.713-7.713C1.275,4.736,4.736,1.275,8.989,1.275 M8.989,0C4.024,0,0,4.024,0,8.99
		c0,4.964,4.024,8.989,8.989,8.989c4.965,0,8.99-4.024,8.99-8.989C17.979,4.024,13.954,0,8.989,0L8.989,0z"/>
</g>
<g>
	<path fill="#737373" d="M8.148,10.529v-0.388c0-0.336,0.073-0.628,0.216-0.876C8.507,9.017,8.77,8.752,9.151,8.472
		c0.368-0.263,0.61-0.476,0.728-0.64c0.117-0.165,0.176-0.349,0.176-0.551c0-0.228-0.084-0.401-0.252-0.52
		C9.634,6.642,9.4,6.583,9.099,6.583c-0.526,0-1.123,0.17-1.795,0.514L6.732,5.948c0.779-0.438,1.607-0.657,2.482-0.657
		c0.721,0,1.294,0.174,1.719,0.521c0.425,0.346,0.638,0.809,0.638,1.386c0,0.384-0.087,0.717-0.263,0.998
		c-0.174,0.279-0.507,0.594-0.997,0.944C9.975,9.388,9.763,9.576,9.674,9.705c-0.089,0.13-0.134,0.3-0.134,0.509v0.315H8.148z
		 M7.98,12.325c0-0.294,0.079-0.516,0.237-0.667c0.157-0.15,0.386-0.227,0.687-0.227c0.291,0,0.515,0.078,0.674,0.232
		c0.161,0.154,0.24,0.374,0.24,0.661c0,0.277-0.081,0.494-0.243,0.653c-0.161,0.16-0.384,0.239-0.671,0.239
		c-0.293,0-0.521-0.078-0.683-0.234C8.061,12.828,7.98,12.609,7.98,12.325z"/>
</g>
</svg>
