<?xml version="1.0" encoding="utf-8"?>
<!-- Generator: Adobe Illustrator 16.0.4, SVG Export Plug-In . SVG Version: 6.00 Build 0)  -->
<!DOCTYPE svg PUBLIC "-//W3C//DTD SVG 1.1//EN" "http://www.w3.org/Graphics/SVG/1.1/DTD/svg11.dtd">
<svg version="1.1" id="Laag_1" xmlns="http://www.w3.org/2000/svg" xmlns:xlink="http://www.w3.org/1999/xlink" x="0px" y="0px"
	 width="120px" height="123.897px" viewBox="0 0 120 123.897" enable-background="new 0 0 120 123.897" xml:space="preserve">
<path fill="#FFFFFF" d="M119.176,109.646L88.318,78.787c-0.137-0.138-0.312-0.203-0.471-0.305
	c14.596-19.173,13.188-46.644-4.329-64.153c-19.103-19.11-50.079-19.101-69.191,0c-19.103,19.103-19.103,50.089,0,69.188
	c16.247,16.239,41.04,18.622,59.852,7.253c0.112,0.527,0.316,1.033,0.724,1.438l30.859,30.852c1.13,1.16,3.038,1.103,4.251-0.097
	l9.063-9.058C120.267,112.706,120.326,110.798,119.176,109.646z M21.112,76.745c-15.379-15.367-15.379-40.274,0-55.642
	c15.354-15.366,40.264-15.366,55.63,0c15.367,15.367,15.367,40.275,0,55.642C61.376,92.111,36.467,92.111,21.112,76.745z"/>
</svg>
