<?xml version="1.0" encoding="utf-8"?>
<!-- Generator: Adobe Illustrator 16.0.4, SVG Export Plug-In . SVG Version: 6.00 Build 0)  -->
<!DOCTYPE svg PUBLIC "-//W3C//DTD SVG 1.1//EN" "http://www.w3.org/Graphics/SVG/1.1/DTD/svg11.dtd">
<svg version="1.1" id="Laag_1" xmlns="http://www.w3.org/2000/svg" xmlns:xlink="http://www.w3.org/1999/xlink" x="0px" y="0px"
	 width="14.528px" height="15px" viewBox="0 0 14.528 15" enable-background="new 0 0 14.528 15" xml:space="preserve">
<path fill="#FFFFFF" d="M14.498,13.338l-3.753-3.754c-0.018-0.017-0.039-0.024-0.057-0.038c1.775-2.332,1.604-5.674-0.527-7.804
	c-2.324-2.325-6.092-2.323-8.417,0c-2.324,2.324-2.324,6.094,0,8.417c1.976,1.976,4.993,2.266,7.281,0.883
	c0.014,0.064,0.039,0.125,0.088,0.175l3.754,3.753c0.138,0.142,0.37,0.135,0.518-0.012l1.103-1.101
	C14.632,13.711,14.638,13.479,14.498,13.338z M2.568,9.336c-1.871-1.869-1.871-4.9,0-6.769c1.868-1.869,4.898-1.869,6.768,0
	c1.87,1.869,1.87,4.9,0,6.769C7.466,11.205,4.436,11.205,2.568,9.336z"/>
</svg>
