<?xml version="1.0" encoding="utf-8"?>
<!-- Generator: Adobe Illustrator 16.0.4, SVG Export Plug-In . SVG Version: 6.00 Build 0)  -->
<!DOCTYPE svg PUBLIC "-//W3C//DTD SVG 1.1//EN" "http://www.w3.org/Graphics/SVG/1.1/DTD/svg11.dtd">
<svg version="1.1" id="Laag_1" xmlns="http://www.w3.org/2000/svg" xmlns:xlink="http://www.w3.org/1999/xlink" x="0px" y="0px"
	 width="15px" height="15px" viewBox="0 0 15 15" enable-background="new 0 0 15 15" xml:space="preserve">
<g>
	<path fill="#666666" d="M7.5,1.417c3.354,0,6.083,2.729,6.083,6.083s-2.729,6.083-6.083,6.083s-6.083-2.729-6.083-6.083
		S4.146,1.417,7.5,1.417 M7.5,0C3.358,0,0,3.358,0,7.501c0,4.143,3.358,7.5,7.5,7.5c4.143,0,7.501-3.358,7.501-7.5
		C15.001,3.358,11.644,0,7.5,0L7.5,0z"/>
</g>
<g>
	<path fill="#666666" d="M6.897,8.774V8.473c0-0.26,0.056-0.487,0.167-0.68c0.111-0.192,0.314-0.397,0.61-0.614
		C7.96,6.975,8.147,6.81,8.239,6.683C8.33,6.555,8.375,6.412,8.375,6.255c0-0.176-0.065-0.311-0.195-0.403
		C8.049,5.76,7.867,5.714,7.634,5.714c-0.407,0-0.871,0.132-1.392,0.398L5.798,5.221c0.605-0.339,1.247-0.509,1.925-0.509
		c0.559,0,1.003,0.135,1.333,0.403S9.551,5.742,9.551,6.19c0,0.298-0.068,0.556-0.204,0.773C9.212,7.18,8.954,7.424,8.574,7.696
		C8.314,7.889,8.149,8.035,8.08,8.135C8.011,8.236,7.976,8.368,7.976,8.53v0.244H6.897z M6.767,10.167
		c0-0.228,0.061-0.4,0.183-0.517s0.3-0.175,0.533-0.175c0.225,0,0.399,0.06,0.523,0.179c0.124,0.12,0.186,0.291,0.186,0.513
		c0,0.215-0.062,0.384-0.188,0.507c-0.125,0.124-0.298,0.186-0.521,0.186c-0.228,0-0.404-0.061-0.529-0.181
		C6.83,10.557,6.767,10.387,6.767,10.167z"/>
</g>
</svg>
