<?xml version="1.0" encoding="utf-8"?>
<!-- Generator: Adobe Illustrator 16.0.4, SVG Export Plug-In . SVG Version: 6.00 Build 0)  -->
<!DOCTYPE svg PUBLIC "-//W3C//DTD SVG 1.1//EN" "http://www.w3.org/Graphics/SVG/1.1/DTD/svg11.dtd">
<svg version="1.1" id="Laag_1" xmlns="http://www.w3.org/2000/svg" xmlns:xlink="http://www.w3.org/1999/xlink" x="0px" y="0px"
	 width="18px" height="18px" viewBox="0 0 18 18" enable-background="new 0 0 18 18" xml:space="preserve">
<circle fill="#666666" cx="8.977" cy="8.977" r="8.977"/>
<path fill="#FFFFFF" d="M13.482,13.022l-2.349-2.351c-0.012-0.012-0.025-0.015-0.035-0.024c1.11-1.46,1.003-3.552-0.33-4.885
	c-1.455-1.455-3.815-1.454-5.268,0c-1.456,1.455-1.456,3.816,0,5.268c1.236,1.236,3.124,1.419,4.558,0.554
	c0.007,0.04,0.021,0.079,0.052,0.11l2.351,2.347c0.087,0.089,0.231,0.087,0.325-0.007l0.689-0.689
	C13.565,13.256,13.57,13.109,13.482,13.022z M6.014,10.517c-1.17-1.171-1.17-3.066,0-4.237c1.17-1.171,3.067-1.171,4.238,0
	c1.171,1.17,1.171,3.066,0,4.237S7.183,11.688,6.014,10.517z"/>
</svg>
