<?xml version="1.0" encoding="utf-8"?>
<!-- Generator: Adobe Illustrator 16.0.4, SVG Export Plug-In . SVG Version: 6.00 Build 0)  -->
<!DOCTYPE svg PUBLIC "-//W3C//DTD SVG 1.1//EN" "http://www.w3.org/Graphics/SVG/1.1/DTD/svg11.dtd">
<svg version="1.1" id="Laag_1" xmlns="http://www.w3.org/2000/svg" xmlns:xlink="http://www.w3.org/1999/xlink" x="0px" y="0px"
	 width="15px" height="15px" viewBox="0 0 15 15" enable-background="new 0 0 15 15" xml:space="preserve">
<circle fill="#FFFFFF" cx="7.501" cy="7.501" r="7.501"/>
<path fill="#219DC8" d="M7.497,7.131c1.014,0,1.836-0.833,1.836-1.859S8.511,3.414,7.497,3.414c-1.014,0-1.835,0.833-1.835,1.859
	S6.483,7.131,7.497,7.131"/>
<path fill="#219DC8" d="M9.311,7.554C8.806,7.937,8.178,8.165,7.498,8.165c-0.679,0-1.306-0.228-1.811-0.609
	c-1.526,1.033-1.482,3.422-1.482,3.438c0,0,0,0,0,0.001c0,0.21,1.476,0.381,3.296,0.381s3.296-0.171,3.296-0.381c0,0,0,0,0-0.001
	C10.797,10.978,10.84,8.586,9.311,7.554"/>
</svg>
