<?xml version="1.0" encoding="utf-8"?>
<!-- Generator: Adobe Illustrator 16.0.4, SVG Export Plug-In . SVG Version: 6.00 Build 0)  -->
<!DOCTYPE svg PUBLIC "-//W3C//DTD SVG 1.1//EN" "http://www.w3.org/Graphics/SVG/1.1/DTD/svg11.dtd">
<svg version="1.1" id="Laag_1" xmlns="http://www.w3.org/2000/svg" xmlns:xlink="http://www.w3.org/1999/xlink" x="0px" y="0px"
	 width="24px" height="24px" viewBox="0 4.245 24 24" enable-background="new 0 4.245 24 24" xml:space="preserve">
<g>
	<path fill="#333333" d="M17.303,16.061v7.505H6.011v-7.507L17.303,16.061 M18.588,14.748H4.725V24.88h13.863V14.748L18.588,14.748z
		"/>
</g>
<g>
	<path fill="#333333" d="M15.914,14.87h-1.287v-2.305c0.004-0.063,0.108-1.812-0.859-2.869c-0.504-0.552-1.242-0.832-2.192-0.832
		h-0.094c-0.949,0-1.687,0.279-2.192,0.832c-0.968,1.058-0.863,2.806-0.862,2.823l0.001,2.352H7.144v-2.305
		c-0.005-0.046-0.15-2.275,1.198-3.757c0.759-0.835,1.814-1.258,3.14-1.258h0.094c1.325,0,2.38,0.423,3.14,1.257
		c1.349,1.482,1.202,3.711,1.197,3.805L15.914,14.87z"/>
</g>
</svg>
