<?xml version="1.0" encoding="utf-8"?>
<!-- Generator: Adobe Illustrator 16.0.4, SVG Export Plug-In . SVG Version: 6.00 Build 0)  -->
<!DOCTYPE svg PUBLIC "-//W3C//DTD SVG 1.1//EN" "http://www.w3.org/Graphics/SVG/1.1/DTD/svg11.dtd">
<svg version="1.1" id="Laag_1" xmlns="http://www.w3.org/2000/svg" xmlns:xlink="http://www.w3.org/1999/xlink" x="0px" y="0px"
	 width="28px" height="28px" viewBox="0 0 28 28" enable-background="new 0 0 28 28" xml:space="preserve">
<g>
	<path fill="#7F7F7F" d="M18.146,15.277v10.828H1.855V15.276L18.146,15.277 M20,13.383H0V28h20V13.383L20,13.383z"/>
</g>
<g>
	<path fill="#7F7F7F" d="M16.143,13.56h-1.856v-3.326c0.004-0.092,0.155-2.614-1.24-4.139c-0.729-0.797-1.793-1.201-3.163-1.201
		H9.747c-1.369,0-2.433,0.403-3.162,1.201C5.189,7.62,5.34,10.142,5.342,10.167l0.002,3.394H3.489v-3.326
		c-0.007-0.066-0.216-3.282,1.729-5.42C6.313,3.61,7.836,3,9.747,3h0.137c1.91,0,3.434,0.61,4.529,1.813
		c1.946,2.139,1.736,5.354,1.727,5.49L16.143,13.56z"/>
</g>
</svg>
