<?xml version="1.0" encoding="utf-8"?>
<!-- Generator: Adobe Illustrator 16.0.4, SVG Export Plug-In . SVG Version: 6.00 Build 0)  -->
<!DOCTYPE svg PUBLIC "-//W3C//DTD SVG 1.1//EN" "http://www.w3.org/Graphics/SVG/1.1/DTD/svg11.dtd">
<svg version="1.1" id="Laag_1" xmlns="http://www.w3.org/2000/svg" xmlns:xlink="http://www.w3.org/1999/xlink" x="0px" y="0px"
	 width="28px" height="28px" viewBox="0 0 28 28" enable-background="new 0 0 28 28" xml:space="preserve">
<g>
	<path fill="#333333" d="M18.012,15.63v10.528H1.841V15.629L18.012,15.63 M19.853,13.788H0V28h19.853V13.788L19.853,13.788z"/>
</g>
<g>
	<path fill="#333333" d="M16.023,13.96h-1.843v-3.234c0.004-0.09,0.154-2.542-1.23-4.024c-0.724-0.775-1.78-1.167-3.139-1.167H9.675
		c-1.359,0-2.415,0.393-3.139,1.168c-1.385,1.482-1.235,3.934-1.234,3.958l0.002,3.299H3.463v-3.234
		c-0.007-0.064-0.214-3.191,1.717-5.27c1.087-1.17,2.599-1.763,4.495-1.763h0.136c1.896,0,3.408,0.593,4.495,1.763
		c1.931,2.079,1.723,5.206,1.714,5.337L16.023,13.96z"/>
</g>
</svg>
