<?xml version="1.0" encoding="utf-8"?>
<!-- Generator: Adobe Illustrator 16.0.0, SVG Export Plug-In . SVG Version: 6.00 Build 0)  -->
<!DOCTYPE svg PUBLIC "-//W3C//DTD SVG 1.1//EN" "http://www.w3.org/Graphics/SVG/1.1/DTD/svg11.dtd">
<svg version="1.1" id="Laag_1" xmlns="http://www.w3.org/2000/svg" xmlns:xlink="http://www.w3.org/1999/xlink" x="0px" y="0px"
	 width="30px" height="30px" viewBox="0 0 30 30" enable-background="new 0 0 30 30" xml:space="preserve">
<g>
	<path fill-rule="evenodd" clip-rule="evenodd" d="M0.46,9.858c0.048-0.15,0.094-0.302,0.145-0.451
		c0.331-0.957,1.17-1.577,2.257-1.583c3.075-0.016,6.149-0.005,9.224-0.005c0.025,0,0.05,0.011,0.123,0.027
		c-0.178,0.128-0.324,0.237-0.474,0.341c-1.054,0.734-2.105,1.471-3.167,2.193c-0.136,0.093-0.326,0.147-0.492,0.148
		c-1.635,0.01-3.272,0.006-4.932,0.006c0,4.65,0,9.291,0,13.954c7.697,0,15.401,0,23.149,0c0-0.093,0-0.193,0-0.292
		c0-1.249-0.002-2.497,0.004-3.746c0.001-0.103,0.021-0.246,0.09-0.303c0.849-0.723,1.709-1.434,2.599-2.174
		c0.011,0.102,0.023,0.17,0.023,0.236c0.002,2.166,0.012,4.333-0.004,6.5c-0.005,0.93-0.308,1.743-1.189,2.189
		c-0.325,0.162-0.721,0.257-1.085,0.258c-5.818,0.016-11.636,0.011-17.455,0.011c-2.062,0-4.125-0.02-6.187,0.007
		c-1.472,0.02-2.412-0.892-2.582-1.979c-0.004-0.024-0.032-0.046-0.049-0.067C0.46,20.039,0.46,14.949,0.46,9.858z"/>
	<path fill-rule="evenodd" clip-rule="evenodd" d="M29.527,12.526c-1.066,0.828-2.141,1.646-3.198,2.485
		c-1.882,1.489-3.753,2.992-5.63,4.487c-0.081,0.064-0.168,0.119-0.282,0.199c-0.011-0.1-0.024-0.168-0.024-0.236
		c-0.002-1.163-0.006-2.327,0.005-3.49c0.001-0.193-0.048-0.282-0.242-0.33c-0.985-0.244-1.979-0.269-2.979-0.139
		c-3.179,0.413-5.888,1.893-8.446,3.715c-0.405,0.287-0.797,0.594-1.194,0.892c-0.03-0.014-0.06-0.025-0.091-0.041
		c0.127-0.464,0.222-0.941,0.387-1.394c0.803-2.196,2.117-4.059,3.8-5.664c1.611-1.536,3.474-2.646,5.638-3.227
		c0.934-0.251,1.885-0.373,2.847-0.421c0.083-0.004,0.165-0.014,0.273-0.023c0-1.2,0-2.386,0-3.626
		c0.324,0.191,0.608,0.354,0.887,0.524c1.659,1.012,3.147,2.252,4.66,3.462c1.105,0.885,2.247,1.725,3.374,2.583
		c0.066,0.051,0.145,0.087,0.217,0.13C29.527,12.451,29.527,12.488,29.527,12.526z"/>
</g>
</svg>
