<?xml version="1.0" encoding="utf-8"?>
<!-- Generator: Adobe Illustrator 16.0.4, SVG Export Plug-In . SVG Version: 6.00 Build 0)  -->
<!DOCTYPE svg PUBLIC "-//W3C//DTD SVG 1.1//EN" "http://www.w3.org/Graphics/SVG/1.1/DTD/svg11.dtd">
<svg version="1.1" id="Laag_1" xmlns="http://www.w3.org/2000/svg" xmlns:xlink="http://www.w3.org/1999/xlink" x="0px" y="0px"
	 width="50px" height="30px" viewBox="0 0 50 30" enable-background="new 0 0 50 30" xml:space="preserve">
<g>
	<path fill="#333333" d="M42.44,4h-1.936c-0.969,0-2.32-0.666-3.006-1.353L35.317,0.85C34.634,0.162,33.282,0,32.312,0H18.82
		c-0.969,0-2.32,0.111-3.004,0.799l-2.184,2.074C12.95,3.56,11.598,4,10.629,4h-8C1.66,4,0,4.586,0,5.555v22.432
		C0,28.955,1.66,30,2.629,30H42.44c0.971,0,1.561-1.044,1.561-2.014V5.555C44.001,4.586,43.411,4,42.44,4z M25.896,25.1
		c-5.077,0-9.192-4.117-9.192-9.192c0-5.077,4.115-9.192,9.192-9.192s9.193,4.115,9.193,9.192
		C35.089,20.982,30.973,25.1,25.896,25.1z"/>
	<circle fill="#333333" cx="25.896" cy="15.907" r="6.106"/>
</g>
</svg>
