<?xml version="1.0" encoding="utf-8"?>
<!-- Generator: Adobe Illustrator 16.0.4, SVG Export Plug-In . SVG Version: 6.00 Build 0)  -->
<!DOCTYPE svg PUBLIC "-//W3C//DTD SVG 1.1//EN" "http://www.w3.org/Graphics/SVG/1.1/DTD/svg11.dtd">
<svg version="1.1" id="Laag_1" xmlns="http://www.w3.org/2000/svg" xmlns:xlink="http://www.w3.org/1999/xlink" x="0px" y="0px"
	 width="50px" height="30px" viewBox="0 0 50 30" enable-background="new 0 0 50 30" xml:space="preserve">
<path fill="#333333" d="M27.848,13.352c0.201,1.316-0.193,2.706-1.204,3.717l-8.856,8.855c-0.818,0.82-1.908,1.27-3.064,1.27
	c-1.16,0-2.247-0.449-3.066-1.27c-1.691-1.689-1.691-4.439,0-6.131l8.855-8.855c0.761-0.759,1.758-1.187,2.823-1.246l2.536-2.535
	c-0.729-0.244-1.5-0.378-2.293-0.378c-1.929,0-3.745,0.752-5.109,2.115L9.613,17.75c-2.817,2.816-2.817,7.401,0,10.218
	c1.365,1.364,3.179,2.116,5.11,2.116c1.929,0,3.744-0.752,5.107-2.116l8.856-8.855c2.18-2.18,2.666-5.414,1.472-8.071L27.848,13.352
	z"/>
<path fill="#333333" d="M43.139,2.149c-1.366-1.364-3.179-2.115-5.11-2.115c-1.93,0-3.746,0.751-5.109,2.116l-8.856,8.856
	c-2.18,2.178-2.666,5.413-1.473,8.071l2.311-2.311c-0.2-1.317,0.194-2.707,1.204-3.717l8.857-8.856
	c0.818-0.819,1.908-1.269,3.066-1.269s2.247,0.449,3.066,1.269c1.69,1.689,1.69,4.44,0,6.131l-8.857,8.855
	c-0.76,0.76-1.756,1.188-2.822,1.246l-2.536,2.536c0.729,0.243,1.5,0.377,2.293,0.377c1.929,0,3.745-0.751,5.109-2.115l8.856-8.855
	C45.955,9.552,45.955,4.968,43.139,2.149z"/>
</svg>
