<?xml version="1.0" encoding="utf-8"?>
<!-- Generator: Adobe Illustrator 16.0.4, SVG Export Plug-In . SVG Version: 6.00 Build 0)  -->
<!DOCTYPE svg PUBLIC "-//W3C//DTD SVG 1.1//EN" "http://www.w3.org/Graphics/SVG/1.1/DTD/svg11.dtd">
<svg version="1.1" id="Laag_1" xmlns="http://www.w3.org/2000/svg" xmlns:xlink="http://www.w3.org/1999/xlink" x="0px" y="0px"
	 width="50px" height="30px" viewBox="0 0 50 30" enable-background="new 0 0 50 30" xml:space="preserve">
<g>
	<path fill="#FFFFFF" d="M2.629,28.937c-0.516,0-1.483-0.652-1.569-0.981l0.003-22.4c0.106-0.132,0.919-0.491,1.566-0.491h8
		c1.156,0,2.817-0.495,3.758-1.441l2.162-2.053c0.167-0.167,0.677-0.506,2.272-0.506h13.491c1.044,0,1.928,0.21,2.252,0.535
		l0.078,0.071l2.145,1.768c0.817,0.795,2.379,1.626,3.718,1.626h1.936c0.386,0,0.498,0.109,0.498,0.491v22.432
		c0,0.471-0.251,0.95-0.498,0.95H2.629z"/>
	<path fill="#00A291" d="M32.312,2.126c0.882,0,1.414,0.171,1.499,0.223l0.074,0.074l0.081,0.067l2.114,1.742
		c1,0.954,2.807,1.894,4.426,1.894h1.37v21.748H2.68c-0.147-0.034-0.392-0.167-0.554-0.292V6.225
		c0.169-0.056,0.365-0.099,0.503-0.099h8c1.324,0,3.286-0.541,4.487-1.729l2.165-2.057l0.007-0.006
		c0.077-0.039,0.473-0.208,1.533-0.208H32.312 M32.312,0H18.82c-0.969,0-2.32,0.111-3.004,0.799l-2.184,2.074
		C12.95,3.56,11.598,4,10.629,4h-8C1.66,4,0,4.586,0,5.555v22.432C0,28.955,1.66,30,2.629,30H42.44c0.971,0,1.561-1.044,1.561-2.014
		V5.555C44.001,4.586,43.411,4,42.44,4h-1.936c-0.969,0-2.32-0.666-3.006-1.353L35.317,0.85C34.634,0.162,33.282,0,32.312,0
		L32.312,0z"/>
</g>
<circle fill="none" stroke="#00A291" stroke-width="1.4173" stroke-miterlimit="10" cx="26.221" cy="16.232" r="7.034"/>
</svg>
