<?xml version="1.0" encoding="utf-8"?>
<!-- Generator: Adobe Illustrator 16.0.4, SVG Export Plug-In . SVG Version: 6.00 Build 0)  -->
<!DOCTYPE svg PUBLIC "-//W3C//DTD SVG 1.1//EN" "http://www.w3.org/Graphics/SVG/1.1/DTD/svg11.dtd">
<svg version="1.1" id="Laag_1" xmlns="http://www.w3.org/2000/svg" xmlns:xlink="http://www.w3.org/1999/xlink" x="0px" y="0px"
	 width="50px" height="30px" viewBox="0 0 50 30" enable-background="new 0 0 50 30" xml:space="preserve">
<g>
	<rect fill="#FFFFFF" width="42.25" height="30.05"/>
	<path fill="#00A291" d="M37.25,2.126c1.585,0,2.874,1.289,2.874,2.874v20.05c0,1.585-1.289,2.874-2.874,2.874H5
		c-1.585,0-2.874-1.289-2.874-2.874V5c0-1.585,1.289-2.874,2.874-2.874H37.25 M37.25,0H5C2.25,0,0,2.25,0,5v20.05c0,2.75,2.25,5,5,5
		h32.25c2.75,0,5-2.25,5-5V5C42.25,2.25,40,0,37.25,0L37.25,0z"/>
</g>
<polygon fill="#00A291" points="14.866,7.8 14.866,22.249 31.336,15.024 "/>
</svg>
