<?xml version="1.0" encoding="utf-8"?>
<!-- Generator: Adobe Illustrator 16.0.4, SVG Export Plug-In . SVG Version: 6.00 Build 0)  -->
<!DOCTYPE svg PUBLIC "-//W3C//DTD SVG 1.1//EN" "http://www.w3.org/Graphics/SVG/1.1/DTD/svg11.dtd">
<svg version="1.1" id="Laag_1" xmlns="http://www.w3.org/2000/svg" xmlns:xlink="http://www.w3.org/1999/xlink" x="0px" y="0px"
	 width="50px" height="30px" viewBox="0 0 50 30" enable-background="new 0 0 50 30" xml:space="preserve">
<g>
	<path fill="#333333" d="M48.933,3.928h-6.905c-0.549,0-1,0.449-1,1v21.235c0,0.55,0.451,1,1,1h6.905c0.55,0,1-0.45,1-1V4.928
		C49.933,4.377,49.482,3.928,48.933,3.928z"/>
	<path fill="#333333" d="M34.773,0.179H3c-1.65,0-3,1.351-3,3v23.643c0,1.65,1.35,3,3,3h31.773c1.65,0,3-1.35,3-3V3.179
		C37.773,1.529,36.424,0.179,34.773,0.179z M8.134,11.214c-1.323,0-2.394-1.073-2.394-2.396c0-1.32,1.07-2.394,2.394-2.394
		s2.396,1.073,2.396,2.394C10.529,10.141,9.457,11.214,8.134,11.214z"/>
</g>
</svg>
