<?xml version="1.0" encoding="utf-8"?>
<!-- Generator: Adobe Illustrator 16.0.0, SVG Export Plug-In . SVG Version: 6.00 Build 0)  -->
<!DOCTYPE svg PUBLIC "-//W3C//DTD SVG 1.1//EN" "http://www.w3.org/Graphics/SVG/1.1/DTD/svg11.dtd">
<svg version="1.1"
	 id="svg3353" sodipodi:version="0.32" sodipodi:docname="magnet.svg" inkscape:version="0.46+devel" inkscape:output_extension="org.inkscape.output.svg.inkscape" xmlns:dc="http://purl.org/dc/elements/1.1/" xmlns:cc="http://creativecommons.org/ns#" xmlns:rdf="http://www.w3.org/1999/02/22-rdf-syntax-ns#" xmlns:svg="http://www.w3.org/2000/svg" xmlns:inkscape="http://www.inkscape.org/namespaces/inkscape" xmlns:sodipodi="http://sodipodi.sourceforge.net/DTD/sodipodi-0.dtd"
	 xmlns="http://www.w3.org/2000/svg" xmlns:xlink="http://www.w3.org/1999/xlink" x="0px" y="0px" width="491.475px"
	 height="268.828px" viewBox="114.184 352.234 491.475 268.828" enable-background="new 114.184 352.234 491.475 268.828"
	 xml:space="preserve">
<defs>
	
	
		<inkscape:perspective  id="perspective3359" inkscape:vp_z="744.09448 : 526.18109 : 1" inkscape:vp_x="0 : 526.18109 : 1" inkscape:vp_y="0 : 1000 : 0" sodipodi:type="inkscape:persp3d" inkscape:persp3d-origin="372.04724 : 350.78739 : 1">
		</inkscape:perspective>
	
		<inkscape:perspective  id="perspective3341" inkscape:vp_z="1 : 0.5 : 1" inkscape:vp_x="0 : 0.5 : 1" inkscape:vp_y="0 : 1000 : 0" sodipodi:type="inkscape:persp3d" inkscape:persp3d-origin="0.5 : 0.33333333 : 1">
		</inkscape:perspective>
</defs>
<sodipodi:namedview  id="base" pagecolor="#ffffff" inkscape:zoom="0.35" borderopacity="1.0" bordercolor="#666666" showgrid="false" inkscape:cx="350" inkscape:cy="520" inkscape:current-layer="layer1" inkscape:pageshadow="2" inkscape:pageopacity="0.0" inkscape:document-units="mm">
	</sodipodi:namedview>
<g id="layer1" inkscape:label="Layer 1" inkscape:groupmode="layer">
	
		<path id="path2492" sodipodi:cx="187.93094" sodipodi:rx="112.06907" sodipodi:ry="109.40143" sodipodi:type="arc" sodipodi:cy="554.69305" d="
		M384.524,486.648c0.013,74.223-60.495,134.402-135.147,134.414s-135.18-60.146-135.193-134.369c0-0.016,0-0.029,0-0.045
		c-0.013-74.222,60.495-134.402,135.147-134.414c74.652-0.013,135.18,60.146,135.193,134.369
		C384.524,486.617,384.524,486.632,384.524,486.648z"/>
	<rect id="rect2494" x="247.426" y="352.257" width="164.68" height="268.782"/>
	<rect id="rect2496" x="250.628" y="431.31" fill="#FFFFFF" width="176.442" height="110.676"/>
	
		<path id="path3270" sodipodi:cx="-70.50647" sodipodi:rx="90.50647" sodipodi:ry="79.922295" sodipodi:type="arc" sodipodi:cy="604.17218" fill="#FFFFFF" d="
		M322.816,486.648c0,30.562-27.94,55.338-62.406,55.338c-34.466,0-62.406-24.775-62.406-55.338s27.94-55.338,62.406-55.338
		C294.876,431.31,322.816,456.085,322.816,486.648z"/>
	<rect id="rect3272" x="329.362" y="368.067" fill="#FFFFFF" width="68.952" height="47.433"/>
	<rect id="rect3294" x="329.362" y="557.796" fill="#FFFFFF" width="68.952" height="47.432"/>
	<path id="path3308" sodipodi:nodetypes="ccccccc" stroke="#000000" stroke-width="0.3128" d="M448.231,416.74l62.065-61.923
		l42.047,33.153l53.315-19.576l-57.507,62.642l-38.075-37.956L448.231,416.74z"/>
	<path id="path3332" sodipodi:nodetypes="ccccccc" stroke="#000000" stroke-width="0.3128" d="M446.578,605.06l62.066-61.924
		l42.047,33.154l53.315-19.576L546.5,619.355L508.424,581.4L446.578,605.06z"/>
</g>
</svg>
