<?xml version="1.0" encoding="utf-8"?>
<!-- Generator: Adobe Illustrator 16.0.4, SVG Export Plug-In . SVG Version: 6.00 Build 0)  -->
<!DOCTYPE svg PUBLIC "-//W3C//DTD SVG 1.1//EN" "http://www.w3.org/Graphics/SVG/1.1/DTD/svg11.dtd">
<svg version="1.1" id="Laag_1" xmlns="http://www.w3.org/2000/svg" xmlns:xlink="http://www.w3.org/1999/xlink" x="0px" y="0px"
	 width="18px" height="18px" viewBox="0 0 18 18" enable-background="new 0 0 18 18" xml:space="preserve">
<path fill="#CCCCCC" d="M9.073,13.021l-2.349-2.351c-0.012-0.012-0.025-0.015-0.035-0.024c1.11-1.459,1.003-3.552-0.33-4.884
	c-1.454-1.455-3.814-1.454-5.267,0c-1.456,1.455-1.456,3.816,0,5.268c1.236,1.235,3.124,1.419,4.559,0.554
	c0.006,0.04,0.021,0.079,0.051,0.109l2.351,2.348c0.086,0.089,0.23,0.087,0.325-0.007l0.688-0.689
	C9.155,13.256,9.161,13.109,9.073,13.021z M1.606,10.518c-1.17-1.171-1.17-3.066,0-4.237c1.17-1.171,3.067-1.171,4.238,0
	c1.17,1.17,1.17,3.066,0,4.237C4.673,11.688,2.775,11.688,1.606,10.518z"/>
</svg>
