<?xml version="1.0" encoding="utf-8"?>
<!-- Generator: Adobe Illustrator 16.0.4, SVG Export Plug-In . SVG Version: 6.00 Build 0)  -->
<!DOCTYPE svg PUBLIC "-//W3C//DTD SVG 1.1//EN" "http://www.w3.org/Graphics/SVG/1.1/DTD/svg11.dtd">
<svg version="1.1" id="Laag_1" xmlns="http://www.w3.org/2000/svg" xmlns:xlink="http://www.w3.org/1999/xlink" x="0px" y="0px"
	 width="50px" height="50px" viewBox="0 0 50 50" enable-background="new 0 0 50 50" xml:space="preserve">
<g id="Layer_1">
	<rect x="0" y="0" fill="#CF0039" width="50" height="50"/>
</g>
<g id="Layer_2">
	<g>
		<path fill="#FFFFFF" d="M31.543,37.724l-1.998-5.667h-9.299l-1.998,5.667h-5.449l9.736-25.427h4.94l9.662,25.427H31.543z
			 M26.167,22.613c-0.509-1.489-1.017-3.015-1.272-3.959c-0.254,0.944-0.762,2.47-1.271,3.959l-1.635,4.613h5.812L26.167,22.613z"/>
	</g>
	<path fill="#F28B00" d="M11.746,25.714c-0.12,0.356-0.505,0.548-0.862,0.428l-7.091-2.38c-0.356-0.119-0.549-0.505-0.429-0.862
		l0.59-1.757c0.12-0.356,0.506-0.548,0.862-0.428l7.091,2.38c0.357,0.12,0.549,0.505,0.429,0.862L11.746,25.714z"/>
	<path fill="#F28B00" d="M11.359,31.281c0.12,0.356-0.073,0.743-0.43,0.862l-5.051,1.793c-0.357,0.119-0.743-0.073-0.862-0.43
		l-0.588-1.757c-0.119-0.356,0.073-0.743,0.43-0.862l5.051-1.793c0.356-0.12,0.742,0.073,0.862,0.429L11.359,31.281z"/>
	<path fill="#F28B00" d="M9.969,15.066c-0.297,0.23-0.352,0.658-0.122,0.956l3.201,4.299c0.23,0.297,0.657,0.352,0.955,0.122
		l1.466-1.133c0.297-0.23,0.353-0.658,0.122-0.956l-3.201-4.299c-0.23-0.298-0.657-0.353-0.955-0.123L9.969,15.066z"/>
	<path fill="#F28B00" d="M38.139,25.714c0.12,0.356,0.506,0.548,0.862,0.428l7.092-2.38c0.356-0.119,0.548-0.505,0.429-0.862
		l-0.59-1.757c-0.12-0.356-0.506-0.548-0.862-0.428l-7.091,2.38c-0.356,0.12-0.549,0.505-0.429,0.862L38.139,25.714z"/>
	<path fill="#F28B00" d="M38.526,31.281c-0.12,0.356,0.073,0.743,0.43,0.862l5.051,1.793c0.357,0.119,0.743-0.073,0.862-0.43
		l0.588-1.757c0.12-0.356-0.073-0.743-0.43-0.862l-5.051-1.793c-0.357-0.12-0.743,0.073-0.862,0.429L38.526,31.281z"/>
	<path fill="#F28B00" d="M39.916,15.066c0.297,0.23,0.353,0.658,0.122,0.956l-3.201,4.299c-0.23,0.297-0.657,0.352-0.955,0.122
		l-1.466-1.133c-0.298-0.23-0.353-0.658-0.122-0.956l3.201-4.299c0.23-0.298,0.657-0.353,0.955-0.123L39.916,15.066z"/>
</g>
</svg>
